<?xml version="1.0" encoding="UTF-8" standalone="no"?>
<!DOCTYPE svg PUBLIC "-//W3C//DTD SVG 1.1//EN"
 "http://www.w3.org/Graphics/SVG/1.1/DTD/svg11.dtd">
<!-- Generated by graphviz version 2.40.1 (20161225.0304)
 -->
<!-- Title: dependencies Pages: 1 -->
<svg width="1038pt" height="290pt"
 viewBox="0.00 0.00 1038.00 290.00" xmlns="http://www.w3.org/2000/svg" xmlns:xlink="http://www.w3.org/1999/xlink">
<g id="graph0" class="graph" transform="scale(1 1) rotate(0) translate(4 286)">
<title>dependencies</title>
<polygon fill="#ffffff" stroke="transparent" points="-4,4 -4,-286 1034,-286 1034,4 -4,4"/>
<text text-anchor="start" x="494.0091" y="-42.4" font-family="sans-serif" font-weight="bold" font-size="14.00" fill="#000000">Legend</text>
<polygon fill="#ffffb3" stroke="transparent" points="281,-10 281,-30 301,-30 301,-10 281,-10"/>
<text text-anchor="start" x="304.629" y="-15.4" font-family="sans-serif" font-size="14.00" fill="#000000"> &#160;Declarations</text>
<polygon fill="#8dd3c7" stroke="transparent" points="394,-10 394,-30 414,-30 414,-10 394,-10"/>
<text text-anchor="start" x="417.7251" y="-15.4" font-family="sans-serif" font-size="14.00" fill="#000000"> &#160;Module</text>
<polygon fill="#80b1d3" stroke="transparent" points="480,-10 480,-30 500,-30 500,-10 480,-10"/>
<text text-anchor="start" x="503.7812" y="-15.4" font-family="sans-serif" font-size="14.00" fill="#000000"> &#160;Bootstrap</text>
<polygon fill="#fdb462" stroke="transparent" points="577,-10 577,-30 597,-30 597,-10 577,-10"/>
<text text-anchor="start" x="600.6732" y="-15.4" font-family="sans-serif" font-size="14.00" fill="#000000"> &#160;Providers</text>
<polygon fill="#fb8072" stroke="transparent" points="673,-10 673,-30 693,-30 693,-10 673,-10"/>
<text text-anchor="start" x="696.7258" y="-15.4" font-family="sans-serif" font-size="14.00" fill="#000000"> &#160;Exports</text>
<g id="clust7" class="cluster">
<title>cluster_AuthModule</title>
<polygon fill="none" stroke="#000000" stroke-dasharray="1,5" points="8,-70 8,-198 406,-198 406,-70 8,-70"/>
</g>
<g id="clust9" class="cluster">
<title>cluster_AuthModule_imports</title>
<polygon fill="none" stroke="#000000" points="290,-78 290,-130 398,-130 398,-78 290,-78"/>
</g>
<g id="clust12" class="cluster">
<title>cluster_AuthModule_providers</title>
<polygon fill="none" stroke="#000000" points="16,-78 16,-130 282,-130 282,-78 16,-78"/>
</g>
<g id="clust13" class="cluster">
<title>cluster_CartModule</title>
<polygon fill="none" stroke="#000000" stroke-dasharray="1,5" points="696,-70 696,-274 842,-274 842,-70 696,-70"/>
</g>
<g id="clust16" class="cluster">
<title>cluster_CartModule_exports</title>
<polygon fill="none" stroke="#000000" points="718,-214 718,-266 820,-266 820,-214 718,-214"/>
</g>
<g id="clust18" class="cluster">
<title>cluster_CartModule_providers</title>
<polygon fill="none" stroke="#000000" points="704,-78 704,-130 834,-130 834,-78 704,-78"/>
</g>
<g id="clust19" class="cluster">
<title>cluster_ProductModule</title>
<polygon fill="none" stroke="#000000" stroke-dasharray="1,5" points="850,-70 850,-274 1022,-274 1022,-70 850,-70"/>
</g>
<g id="clust22" class="cluster">
<title>cluster_ProductModule_exports</title>
<polygon fill="none" stroke="#000000" points="875,-214 875,-266 997,-266 997,-214 875,-214"/>
</g>
<g id="clust24" class="cluster">
<title>cluster_ProductModule_providers</title>
<polygon fill="none" stroke="#000000" points="858,-78 858,-130 1014,-130 1014,-78 858,-78"/>
</g>
<g id="clust25" class="cluster">
<title>cluster_UsersModule</title>
<polygon fill="none" stroke="#000000" stroke-dasharray="1,5" points="414,-138 414,-206 688,-206 688,-138 414,-138"/>
</g>
<g id="clust28" class="cluster">
<title>cluster_UsersModule_exports</title>
<polygon fill="none" stroke="#000000" points="570,-146 570,-198 680,-198 680,-146 570,-146"/>
</g>
<g id="clust30" class="cluster">
<title>cluster_UsersModule_providers</title>
<polygon fill="none" stroke="#000000" points="422,-146 422,-198 562,-198 562,-146 422,-146"/>
</g>
<!-- UsersModule -->
<g id="node1" class="node">
<title>UsersModule</title>
<polygon fill="#8dd3c7" stroke="#000000" points="389.9218,-122 386.9218,-126 365.9218,-126 362.9218,-122 298.0782,-122 298.0782,-86 389.9218,-86 389.9218,-122"/>
<text text-anchor="middle" x="344" y="-99.8" font-family="Times,serif" font-size="14.00" fill="#000000">UsersModule</text>
</g>
<!-- AuthModule -->
<g id="node2" class="node">
<title>AuthModule</title>
<polygon fill="#8dd3c7" stroke="#000000" points="258.5482,-190 255.5482,-194 234.5482,-194 231.5482,-190 171.4518,-190 171.4518,-154 258.5482,-154 258.5482,-190"/>
<text text-anchor="middle" x="215" y="-167.8" font-family="Times,serif" font-size="14.00" fill="#000000">AuthModule</text>
</g>
<!-- UsersModule&#45;&gt;AuthModule -->
<g id="edge1" class="edge">
<title>UsersModule&#45;&gt;AuthModule</title>
<path fill="none" stroke="#000000" d="M328.7632,-122.2921C328.7632,-144.2057 328.7632,-178 328.7632,-178 328.7632,-178 268.6585,-178 268.6585,-178"/>
<polygon fill="#000000" stroke="#000000" points="268.6585,-174.5001 258.6585,-178 268.6584,-181.5001 268.6585,-174.5001"/>
</g>
<!-- UsersService  -->
<g id="node11" class="node">
<title>UsersService </title>
<polygon fill="#fb8072" stroke="#000000" points="671.8493,-190 578.1507,-190 578.1507,-154 671.8493,-154 671.8493,-190"/>
<text text-anchor="middle" x="625" y="-167.8" font-family="Times,serif" font-size="14.00" fill="#000000">UsersService </text>
</g>
<!-- UsersModule&#45;&gt;UsersService  -->
<g id="edge8" class="edge">
<title>UsersModule&#45;&gt;UsersService </title>
<path fill="none" stroke="#000000" stroke-dasharray="5,2" d="M389.7729,-104C469.3976,-104 625,-104 625,-104 625,-104 625,-143.7772 625,-143.7772"/>
<polygon fill="#000000" stroke="#000000" points="621.5001,-143.7772 625,-153.7772 628.5001,-143.7773 621.5001,-143.7772"/>
</g>
<!-- AuthService -->
<g id="node3" class="node">
<title>AuthService</title>
<ellipse fill="#fdb462" stroke="#000000" cx="215" cy="-104" rx="59.1083" ry="18"/>
<text text-anchor="middle" x="215" y="-99.8" font-family="Times,serif" font-size="14.00" fill="#000000">AuthService</text>
</g>
<!-- AuthService&#45;&gt;AuthModule -->
<g id="edge2" class="edge">
<title>AuthService&#45;&gt;AuthModule</title>
<path fill="none" stroke="#000000" d="M215,-122.2228C215,-122.2228 215,-143.7269 215,-143.7269"/>
<polygon fill="#000000" stroke="#000000" points="211.5001,-143.7269 215,-153.7269 218.5001,-143.727 211.5001,-143.7269"/>
</g>
<!-- JwtStrategy -->
<g id="node4" class="node">
<title>JwtStrategy</title>
<ellipse fill="#fdb462" stroke="#000000" cx="81" cy="-104" rx="56.7561" ry="18"/>
<text text-anchor="middle" x="81" y="-99.8" font-family="Times,serif" font-size="14.00" fill="#000000">JwtStrategy</text>
</g>
<!-- JwtStrategy&#45;&gt;AuthModule -->
<g id="edge3" class="edge">
<title>JwtStrategy&#45;&gt;AuthModule</title>
<path fill="none" stroke="#000000" d="M81,-122.2228C81,-142.3652 81,-172 81,-172 81,-172 161.1234,-172 161.1234,-172"/>
<polygon fill="#000000" stroke="#000000" points="161.1234,-175.5001 171.1234,-172 161.1234,-168.5001 161.1234,-175.5001"/>
</g>
<!-- CartService  -->
<g id="node5" class="node">
<title>CartService </title>
<polygon fill="#fb8072" stroke="#000000" points="811.581,-258 726.419,-258 726.419,-222 811.581,-222 811.581,-258"/>
<text text-anchor="middle" x="769" y="-235.8" font-family="Times,serif" font-size="14.00" fill="#000000">CartService </text>
</g>
<!-- CartModule -->
<g id="node6" class="node">
<title>CartModule</title>
<polygon fill="#8dd3c7" stroke="#000000" points="810.6529,-190 807.6529,-194 786.6529,-194 783.6529,-190 727.3471,-190 727.3471,-154 810.6529,-154 810.6529,-190"/>
<text text-anchor="middle" x="769" y="-167.8" font-family="Times,serif" font-size="14.00" fill="#000000">CartModule</text>
</g>
<!-- CartModule&#45;&gt;CartService  -->
<g id="edge4" class="edge">
<title>CartModule&#45;&gt;CartService </title>
<path fill="none" stroke="#000000" stroke-dasharray="5,2" d="M769,-190.2228C769,-190.2228 769,-211.7269 769,-211.7269"/>
<polygon fill="#000000" stroke="#000000" points="765.5001,-211.7269 769,-221.7269 772.5001,-211.727 765.5001,-211.7269"/>
</g>
<!-- CartService -->
<g id="node7" class="node">
<title>CartService</title>
<ellipse fill="#fdb462" stroke="#000000" cx="769" cy="-104" rx="56.7348" ry="18"/>
<text text-anchor="middle" x="769" y="-99.8" font-family="Times,serif" font-size="14.00" fill="#000000">CartService</text>
</g>
<!-- CartService&#45;&gt;CartModule -->
<g id="edge5" class="edge">
<title>CartService&#45;&gt;CartModule</title>
<path fill="none" stroke="#000000" d="M769,-122.2228C769,-122.2228 769,-143.7269 769,-143.7269"/>
<polygon fill="#000000" stroke="#000000" points="765.5001,-143.7269 769,-153.7269 772.5001,-143.727 765.5001,-143.7269"/>
</g>
<!-- ProductService  -->
<g id="node8" class="node">
<title>ProductService </title>
<polygon fill="#fb8072" stroke="#000000" points="988.526,-258 883.474,-258 883.474,-222 988.526,-222 988.526,-258"/>
<text text-anchor="middle" x="936" y="-235.8" font-family="Times,serif" font-size="14.00" fill="#000000">ProductService </text>
</g>
<!-- ProductModule -->
<g id="node9" class="node">
<title>ProductModule</title>
<polygon fill="#8dd3c7" stroke="#000000" points="987.5982,-190 984.5982,-194 963.5982,-194 960.5982,-190 884.4018,-190 884.4018,-154 987.5982,-154 987.5982,-190"/>
<text text-anchor="middle" x="936" y="-167.8" font-family="Times,serif" font-size="14.00" fill="#000000">ProductModule</text>
</g>
<!-- ProductModule&#45;&gt;ProductService  -->
<g id="edge6" class="edge">
<title>ProductModule&#45;&gt;ProductService </title>
<path fill="none" stroke="#000000" stroke-dasharray="5,2" d="M936,-190.2228C936,-190.2228 936,-211.7269 936,-211.7269"/>
<polygon fill="#000000" stroke="#000000" points="932.5001,-211.7269 936,-221.7269 939.5001,-211.727 932.5001,-211.7269"/>
</g>
<!-- ProductService -->
<g id="node10" class="node">
<title>ProductService</title>
<ellipse fill="#fdb462" stroke="#000000" cx="936" cy="-104" rx="70.0616" ry="18"/>
<text text-anchor="middle" x="936" y="-99.8" font-family="Times,serif" font-size="14.00" fill="#000000">ProductService</text>
</g>
<!-- ProductService&#45;&gt;ProductModule -->
<g id="edge7" class="edge">
<title>ProductService&#45;&gt;ProductModule</title>
<path fill="none" stroke="#000000" d="M936,-122.2228C936,-122.2228 936,-143.7269 936,-143.7269"/>
<polygon fill="#000000" stroke="#000000" points="932.5001,-143.7269 936,-153.7269 939.5001,-143.727 932.5001,-143.7269"/>
</g>
<!-- UsersService -->
<g id="node12" class="node">
<title>UsersService</title>
<ellipse fill="#fdb462" stroke="#000000" cx="492" cy="-172" rx="61.9519" ry="18"/>
<text text-anchor="middle" x="492" y="-167.8" font-family="Times,serif" font-size="14.00" fill="#000000">UsersService</text>
</g>
<!-- UsersService&#45;&gt;UsersModule -->
<g id="edge9" class="edge">
<title>UsersService&#45;&gt;UsersModule</title>
<path fill="none" stroke="#000000" d="M433.3817,-166C397.8162,-166 359.2368,-166 359.2368,-166 359.2368,-166 359.2368,-132.2667 359.2368,-132.2667"/>
<polygon fill="#000000" stroke="#000000" points="362.7369,-132.2667 359.2368,-122.2667 355.7369,-132.2667 362.7369,-132.2667"/>
</g>
</g>
</svg>
